<svg xmlns="http://www.w3.org/2000/svg" viewBox="0 0 384 512">
  <path fill="currentColor" d="M318.7 268.6c-.2-40.7 18.2-71.5 56.2-94.6-21.2-30.4-53.2-47.2-95.5-50.4-40.2-3.1-84.2 23.4-100.3 23.4-17.2 0-56.2-22.4-87.2-21.8-56.2 .9-116.2 33.7-147.3 96.7-63 127.1-16.1 314.9 45.2 418 30 50.4 65.7 106.9 112.6 104.8 45.1-1.8 62.1-29.2 116.5-29.2 52.8 0 68.1 29.2 117.4 28.3 48.6-.9 79.5-49.5 109.2-100 34.5-58.6 48.7-115.4 49.4-118.4-1.1-.5-94.7-36.4-94.9-144.6zM259.4 50.3C282.3 22.7 279.9-2.5 279.2-12c-20.5 1.2-44.2 13.6-57.7 29.3-14.9 17.1-23.7 38.3-21.9 60.8 22.2 1.7 43.9-9.4 59.8-27.8z"/>
</svg>